<svg width="36" height="48" viewBox="0 0 48 64" fill="none" xmlns="http://www.w3.org/2000/svg">
<path d="M21.5333 62.7206C3.37067 36.379 0 33.6776 0 24.0002C0 10.7441 10.744 0 24 0C37.256 0 48 10.7441 48 24.0002C48 33.6776 44.6293 36.3737 26.4667 62.7099C26.1908 63.1071 25.8231 63.4319 25.3949 63.6565C24.9666 63.8811 24.4904 63.9989 24.0068 64C23.5232 64.001 23.0465 63.8853 22.6172 63.6625C22.188 63.4398 21.8189 63.1166 21.5413 62.7206L21.536 62.7099L21.5333 62.7206ZM24 34.0003C26.6522 34.0003 29.1957 32.9467 31.0711 31.0714C32.9464 29.196 34 26.6524 34 24.0002C34 21.348 32.9464 18.8045 31.0711 16.9291C29.1957 15.0537 26.6522 14.0001 24 14.0001C21.3478 14.0001 18.8043 15.0537 16.9289 16.9291C15.0536 18.8045 14 21.348 14 24.0002C14 26.6524 15.0536 29.196 16.9289 31.0714C18.8043 32.9467 21.3478 34.0003 24 34.0003V34.0003Z" fill="#343a40"/>
</svg>
