<svg width="112" height="112" viewBox="0 0 112 112" fill="none" xmlns="http://www.w3.org/2000/svg">
<rect width="112" height="112" fill="white"/>
<path d="M97.483 44H43.9017C33.4398 44 28.5991 58.7371 28.5991 58.7371C28.5991 60.5478 37.0621 58.9758 38.7736 58.9758H97.483C99.1944 58.9758 100.582 57.508 100.582 55.6972V47.2788C100.582 45.4679 99.1944 44 97.483 44Z" fill="#9BA5A8"/>
<path d="M12.0455 97.3068V76.7264C12.0455 70.3491 27.9172 55.2927 31.3703 52.0926C31.7897 51.7039 32.3399 51.488 32.9111 51.488H96.3912C100.684 51.488 100.961 51.4694 100.961 55.1963V97.3068C100.961 101.034 97.4808 104.055 93.1884 104.055H19.8178C15.5254 104.055 12.0455 101.034 12.0455 97.3068Z" fill="#DEE1E2"/>
<path d="M12 100.582V83.0361L32.1164 83.0361L45.2226 83.0361H93.2203H101V100.582C101 102.531 97.5169 104.111 93.2203 104.111H19.7797C15.4831 104.111 12 102.531 12 100.582Z" fill="#E64F4F"/>
<path d="M19.1275 103.888C19.1275 97.7537 24.0902 92.7806 30.2118 92.7806C36.3334 92.7806 41.2961 97.7537 41.2961 103.888H19.1275ZM91.4392 103.888C91.4392 97.7537 86.4765 92.7806 80.3548 92.7806C74.2332 92.7806 69.2705 97.7537 69.2705 103.888" fill="#9BA5A8"/>
<path d="M38.3069 103.888C38.3069 108.368 34.6826 112 30.2118 112C25.741 112 22.1167 108.368 22.1167 103.888C22.1167 99.4079 25.741 95.7761 30.2118 95.7761C34.6826 95.7761 38.3069 99.4079 38.3069 103.888ZM80.3549 95.7761C75.884 95.7761 72.2597 99.4079 72.2597 103.888C72.2597 108.368 75.884 112 80.3549 112C84.8257 112 88.45 108.368 88.45 103.888C88.45 99.4079 84.8257 95.7761 80.3549 95.7761Z" fill="#2B3B47"/>
<path d="M12 82.7307H101V87.923H12V82.7307Z" fill="#983B3B"/>
<path d="M33.9007 103.888C33.9007 105.93 32.2491 107.585 30.2118 107.585C28.1744 107.585 26.5229 105.93 26.5229 103.888C26.5229 101.846 28.1744 100.191 30.2118 100.191C32.2491 100.191 33.9007 101.846 33.9007 103.888ZM80.3548 100.191C78.3175 100.191 76.666 101.846 76.666 103.888C76.666 105.93 78.3175 107.585 80.3548 107.585C82.3922 107.585 84.0437 105.93 84.0437 103.888C84.0437 101.846 82.3922 100.191 80.3548 100.191Z" fill="#9BA5A8"/>
<path d="M33.5895 58.7371H47.8521C48.0376 58.7371 48.2214 58.7737 48.3929 58.8448C48.5643 58.916 48.7201 59.0203 48.8513 59.1518C48.9825 59.2833 49.0866 59.4394 49.1576 59.6112C49.2286 59.783 49.2652 59.9671 49.2651 60.1531V72.2841C49.2652 72.47 49.2286 72.6542 49.1576 72.826C49.0866 72.9978 48.9825 73.1539 48.8513 73.2854C48.7201 73.4169 48.5643 73.5212 48.3929 73.5924C48.2214 73.6635 48.0376 73.7001 47.8521 73.7001H21.6865C20.336 73.7001 19.755 71.9837 20.8266 71.1603L29.9479 60.423C30.3969 59.8945 30.9551 59.4701 31.5838 59.179C32.2126 58.8879 32.8969 58.7371 33.5895 58.7371V58.7371ZM70.417 71.0973V61.3399C70.417 59.9024 69.2541 58.7371 67.8196 58.7371H57.502C56.0675 58.7371 54.9046 59.9024 54.9046 61.3399V71.0973C54.9046 72.5348 56.0675 73.7001 57.502 73.7001H67.8196C69.2541 73.7001 70.417 72.5348 70.417 71.0973ZM100.789 58.7371H78.0325C76.5979 58.7371 75.4351 59.9024 75.4351 61.3399V71.0973C75.4351 72.5348 76.5979 73.7001 78.0325 73.7001H100.789V58.7371Z" fill="#00B1FF"/>
<path d="M93.6495 49.2917H42.3246C41.9802 49.2917 41.6499 49.1546 41.4063 48.9105C41.1628 48.6665 41.0259 48.3354 41.0259 47.9903C41.0259 47.6451 41.1628 47.3141 41.4063 47.07C41.6499 46.826 41.9802 46.6889 42.3246 46.6889H93.6495C93.9939 46.6889 94.3243 46.826 94.5678 47.07C94.8114 47.3141 94.9482 47.6451 94.9482 47.9903C94.9482 48.3354 94.8114 48.6665 94.5678 48.9105C94.3243 49.1546 93.9939 49.2917 93.6495 49.2917V49.2917Z" fill="#597B91"/>
</svg>
