<svg width="55" height="42" viewBox="0 0 55 42" fill="none" xmlns="http://www.w3.org/2000/svg">
<rect width="55" height="42" fill="white"/>
<path d="M47.727 9H22.199C17.2146 9 14.9083 16.0067 14.9083 16.0067C14.9083 16.8676 18.9404 16.1202 19.7558 16.1202H47.727C48.5424 16.1202 49.2034 15.4223 49.2034 14.5614V10.5589C49.2034 9.6979 48.5424 9 47.727 9Z" fill="#9BA5A8"/>
<path d="M7.02173 34.3444V24.5596C7.02173 21.5275 14.5835 14.369 16.2287 12.8476C16.4285 12.6628 16.6906 12.5601 16.9628 12.5601H47.2069C49.2519 12.5601 49.3839 12.5513 49.3839 14.3232V34.3444C49.3839 36.1165 47.726 37.5529 45.681 37.5529H10.7247C8.67963 37.5529 7.02173 36.1165 7.02173 34.3444Z" fill="#DEE1E2"/>
<path d="M7 35.9015V27.5595L16.5842 27.5595L22.8284 27.5595H45.6961H49.4026V35.9015C49.4026 36.8282 47.7432 37.5793 45.6961 37.5793H10.7065C8.65949 37.5793 7 36.8282 7 35.9015Z" fill="#E64F4F"/>
<path d="M10.3958 37.4734C10.3958 34.5569 12.7602 32.1925 15.6767 32.1925C18.5932 32.1925 20.9576 34.5569 20.9576 37.4734H10.3958ZM44.8475 37.4734C44.8475 34.5569 42.4831 32.1925 39.5666 32.1925C36.65 32.1925 34.2856 34.5569 34.2856 37.4734" fill="#9BA5A8"/>
<path d="M19.5335 37.4734C19.5335 39.6035 17.8068 41.3302 15.6767 41.3302C13.5467 41.3302 11.8199 39.6035 11.8199 37.4734C11.8199 35.3434 13.5467 33.6166 15.6767 33.6166C17.8068 33.6166 19.5335 35.3434 19.5335 37.4734ZM39.5666 33.6166C37.4365 33.6166 35.7098 35.3434 35.7098 37.4734C35.7098 39.6035 37.4365 41.3302 39.5666 41.3302C41.6966 41.3302 43.4234 39.6035 43.4234 37.4734C43.4234 35.3434 41.6966 33.6166 39.5666 33.6166Z" fill="#2B3B47"/>
<path d="M7 27.4143H49.4026V29.883H7V27.4143Z" fill="#983B3B"/>
<path d="M17.4342 37.4734C17.4342 38.4441 16.6474 39.2309 15.6767 39.2309C14.706 39.2309 13.9192 38.4441 13.9192 37.4734C13.9192 36.5028 14.706 35.7159 15.6767 35.7159C16.6474 35.7159 17.4342 36.5028 17.4342 37.4734ZM39.5666 35.7159C38.5959 35.7159 37.809 36.5028 37.809 37.4734C37.809 38.4441 38.5959 39.2309 39.5666 39.2309C40.5372 39.2309 41.3241 38.4441 41.3241 37.4734C41.3241 36.5028 40.5372 35.7159 39.5666 35.7159Z" fill="#9BA5A8"/>
<path d="M17.286 16.0067H24.0812C24.1696 16.0067 24.2571 16.0241 24.3388 16.0579C24.4205 16.0917 24.4947 16.1413 24.5573 16.2038C24.6198 16.2663 24.6694 16.3406 24.7032 16.4223C24.737 16.5039 24.7544 16.5915 24.7544 16.6799V22.4475C24.7544 22.5359 24.737 22.6235 24.7032 22.7052C24.6694 22.7868 24.6198 22.8611 24.5573 22.9236C24.4947 22.9861 24.4205 23.0357 24.3388 23.0695C24.2571 23.1033 24.1696 23.1208 24.0812 23.1207H11.615C10.9716 23.1207 10.6948 22.3047 11.2053 21.9132L15.551 16.8082C15.7649 16.557 16.0309 16.3552 16.3304 16.2168C16.63 16.0784 16.956 16.0067 17.286 16.0067V16.0067ZM34.8319 21.8832V17.2442C34.8319 16.5607 34.2778 16.0067 33.5944 16.0067H28.6788C27.9953 16.0067 27.4413 16.5607 27.4413 17.2442V21.8832C27.4413 22.5667 27.9953 23.1207 28.6788 23.1207H33.5944C34.2778 23.1207 34.8319 22.5667 34.8319 21.8832ZM49.302 16.0067H38.4602C37.7767 16.0067 37.2227 16.5607 37.2227 17.2442V21.8832C37.2227 22.5667 37.7767 23.1207 38.4602 23.1207H49.302V16.0067Z" fill="#00B1FF"/>
<path d="M45.9006 11.5159H21.4477C21.2836 11.5159 21.1262 11.4507 21.0102 11.3347C20.8942 11.2186 20.829 11.0613 20.829 10.8972C20.829 10.7331 20.8942 10.5757 21.0102 10.4596C21.1262 10.3436 21.2836 10.2784 21.4477 10.2784H45.9006C46.0647 10.2784 46.2221 10.3436 46.3382 10.4596C46.4542 10.5757 46.5194 10.7331 46.5194 10.8972C46.5194 11.0613 46.4542 11.2186 46.3382 11.3347C46.2221 11.4507 46.0647 11.5159 45.9006 11.5159V11.5159Z" fill="#597B91"/>
</svg>
