<svg width="33" height="33" viewBox="0 0 33 33" fill="none" xmlns="http://www.w3.org/2000/svg">
<path d="M28.0121 7H12.9611C10.0224 7 8.66266 11.1177 8.66266 11.1177C8.66266 11.6237 11.0399 11.1844 11.5207 11.1844H28.0121C28.4928 11.1844 28.8825 10.7743 28.8825 10.2683V7.91615C28.8825 7.41014 28.4928 7 28.0121 7Z" fill="#9BA5A8"/>
<path d="M4.01282 21.8946V16.1441C4.01282 14.3623 8.47116 10.1553 9.44114 9.26118C9.55892 9.15256 9.71348 9.09223 9.87394 9.09224H27.7054C28.9112 9.09224 28.989 9.08704 28.989 10.1284V21.8946C28.989 22.9359 28.0115 23.7801 26.8058 23.7801H6.19603C4.9903 23.7801 4.01282 22.9359 4.01282 21.8946Z" fill="#DEE1E2"/>
<path d="M4 22.8096V17.9072L9.65069 17.9072L13.3322 17.9072H26.8147H29V22.8096C29 23.3542 28.0216 23.7956 26.8147 23.7956H6.1853C4.97841 23.7956 4 23.3542 4 22.8096Z" fill="#E64F4F"/>
<path d="M6.00208 23.7334C6.00208 22.0194 7.39609 20.6299 9.11565 20.6299C10.8352 20.6299 12.2292 22.0194 12.2292 23.7334H6.00208ZM26.3143 23.7334C26.3143 22.0194 24.9203 20.6299 23.2008 20.6299C21.4812 20.6299 20.0872 22.0194 20.0872 23.7334" fill="#9BA5A8"/>
<path d="M11.3896 23.7334C11.3896 24.9852 10.3716 26 9.11571 26C7.85986 26 6.8418 24.9852 6.8418 23.7334C6.8418 22.4816 7.85986 21.4668 9.11571 21.4668C10.3716 21.4668 11.3896 22.4816 11.3896 23.7334ZM23.2008 21.4668C21.945 21.4668 20.9269 22.4816 20.9269 23.7334C20.9269 24.9852 21.945 26 23.2008 26C24.4567 26 25.4747 24.9852 25.4747 23.7334C25.4747 22.4816 24.4567 21.4668 23.2008 21.4668Z" fill="#2B3B47"/>
<path d="M4 17.8218H29V19.2726H4V17.8218Z" fill="#983B3B"/>
<path d="M10.1519 23.7334C10.1519 24.3039 9.68796 24.7663 9.11567 24.7663C8.54338 24.7663 8.07947 24.3039 8.07947 23.7334C8.07947 23.163 8.54338 22.7006 9.11567 22.7006C9.68796 22.7006 10.1519 23.163 10.1519 23.7334ZM23.2008 22.7006C22.6285 22.7006 22.1646 23.163 22.1646 23.7334C22.1646 24.3039 22.6285 24.7663 23.2008 24.7663C23.7731 24.7663 24.237 24.3039 24.237 23.7334C24.237 23.163 23.7731 22.7006 23.2008 22.7006Z" fill="#9BA5A8"/>
<path d="M10.0645 11.1177H14.0708C14.1229 11.1177 14.1745 11.1279 14.2227 11.1478C14.2709 11.1677 14.3146 11.1968 14.3515 11.2336C14.3883 11.2703 14.4176 11.3139 14.4375 11.362C14.4575 11.41 14.4677 11.4614 14.4677 11.5134V14.9029C14.4677 14.9549 14.4575 15.0063 14.4375 15.0543C14.4176 15.1023 14.3883 15.146 14.3515 15.1827C14.3146 15.2194 14.2709 15.2486 14.2227 15.2685C14.1745 15.2883 14.1229 15.2986 14.0708 15.2986H6.7209C6.34155 15.2986 6.17835 14.819 6.47937 14.5889L9.04152 11.5888C9.16765 11.4411 9.32443 11.3225 9.50105 11.2412C9.67767 11.1599 9.8699 11.1177 10.0645 11.1177V11.1177ZM20.4092 14.5713V11.845C20.4092 11.4433 20.0826 11.1177 19.6796 11.1177H16.7814C16.3785 11.1177 16.0518 11.4433 16.0518 11.845V14.5713C16.0518 14.973 16.3785 15.2986 16.7814 15.2986H19.6796C20.0826 15.2986 20.4092 14.973 20.4092 14.5713ZM28.9406 11.1177H22.5484C22.1455 11.1177 21.8188 11.4433 21.8188 11.845V14.5713C21.8188 14.973 22.1455 15.2986 22.5484 15.2986H28.9406V11.1177Z" fill="#00B1FF"/>
<path d="M26.9353 8.47856H12.5182C12.4214 8.47856 12.3286 8.44025 12.2602 8.37205C12.1918 8.30386 12.1534 8.21137 12.1534 8.11493C12.1534 8.01849 12.1918 7.926 12.2602 7.8578C12.3286 7.78961 12.4214 7.7513 12.5182 7.7513H26.9353C27.032 7.7513 27.1248 7.78961 27.1932 7.8578C27.2616 7.926 27.3001 8.01849 27.3001 8.11493C27.3001 8.21137 27.2616 8.30386 27.1932 8.37205C27.1248 8.44025 27.032 8.47856 26.9353 8.47856V8.47856Z" fill="#597B91"/>
</svg>
