<svg width="33" height="33" viewBox="0 0 33 33" fill="none" xmlns="http://www.w3.org/2000/svg">
<path d="M31.9475 22.8234H1.05253C0.471236 22.8234 0 22.4361 0 21.9585V8.30333C0 7.03123 1.25495 6 2.80303 6H26.3643C30.0291 6 33 8.4413 33 11.4527V21.9584C33.0001 22.4361 32.5288 22.8234 31.9475 22.8234V22.8234Z" fill="#E5E4DF"/>
<path d="M32.1663 22.8234H0.833741C0.373305 22.8234 0 22.4984 0 22.0976V18.0167H33V22.0976C33.0001 22.4984 32.6268 22.8234 32.1663 22.8234Z" fill="#6EB51C"/>
<path d="M0 16.815H33V18.0167H0V16.815Z" fill="#4D8226"/>
<path d="M32.2339 17.4159H33V14.4117H32.2339C31.7808 14.4117 31.4135 14.7225 31.4135 15.1058V16.7217C31.4135 17.1051 31.7808 17.4159 32.2339 17.4159V17.4159Z" fill="#FF473E"/>
<path d="M0.979652 19.2184H0V21.6621H0.979652C1.40157 21.6621 1.74361 21.3383 1.74361 20.9388V19.9416C1.74361 19.5422 1.40157 19.2184 0.979652 19.2184V19.2184Z" fill="#FFD469"/>
<path d="M4.49305 15.1723H0V8.40334H4.49299C5.26568 8.40334 5.89206 8.99637 5.89206 9.72793V13.8477C5.89211 14.5792 5.26573 15.1723 4.49305 15.1723ZM11.141 12.2088V8.8639C11.141 8.76082 11.0978 8.66196 11.0208 8.58908C10.9438 8.51619 10.8394 8.47524 10.7305 8.47524H7.91134C7.80247 8.47524 7.69805 8.51619 7.62106 8.58908C7.54408 8.66196 7.50083 8.76082 7.50083 8.8639V12.2088C7.50083 12.3119 7.54408 12.4108 7.62106 12.4837C7.69805 12.5566 7.80247 12.5975 7.91134 12.5975H10.7305C10.8394 12.5975 10.9438 12.5566 11.0208 12.4837C11.0978 12.4108 11.141 12.3119 11.141 12.2088ZM16.2877 12.2088V8.8639C16.2877 8.76082 16.2444 8.66196 16.1674 8.58908C16.0904 8.51619 15.986 8.47524 15.8771 8.47524H13.058C12.9491 8.47524 12.8447 8.51619 12.7677 8.58908C12.6907 8.66196 12.6475 8.76082 12.6475 8.8639V12.2088C12.6475 12.3119 12.6907 12.4108 12.7677 12.4837C12.8447 12.5566 12.9491 12.5975 13.058 12.5975H15.8771C15.986 12.5975 16.0904 12.5566 16.1674 12.4837C16.2444 12.4108 16.2877 12.3119 16.2877 12.2088ZM20.9212 12.2088V8.8639C20.9212 8.76082 20.8779 8.66196 20.801 8.58908C20.724 8.51619 20.6195 8.47524 20.5107 8.47524H17.6915C17.5826 8.47524 17.4782 8.51619 17.4012 8.58908C17.3242 8.66196 17.281 8.76082 17.281 8.8639V12.2088C17.281 12.3119 17.3242 12.4108 17.4012 12.4837C17.4782 12.5566 17.5826 12.5975 17.6915 12.5975H20.5107C20.6195 12.5975 20.724 12.5566 20.801 12.4837C20.8779 12.4108 20.9212 12.3119 20.9212 12.2088ZM26.0679 12.2088V8.8639C26.0679 8.76082 26.0246 8.66196 25.9476 8.58908C25.8706 8.51619 25.7662 8.47524 25.6574 8.47524H22.8382C22.7293 8.47524 22.6249 8.51619 22.5479 8.58908C22.4709 8.66196 22.4277 8.76082 22.4277 8.8639V12.2088C22.4277 12.3119 22.4709 12.4108 22.5479 12.4837C22.6249 12.5566 22.7293 12.5975 22.8382 12.5975H25.6574C25.7662 12.5975 25.8706 12.5566 25.9476 12.4837C26.0246 12.4108 26.0679 12.3119 26.0679 12.2088Z" fill="#00B1FF"/>
<path d="M31.0962 8.8639V12.2088C31.0962 12.3119 31.0529 12.4108 30.9759 12.4837C30.8989 12.5566 30.7945 12.5975 30.6856 12.5975H27.8665C27.7576 12.5975 27.6532 12.5566 27.5762 12.4837C27.4992 12.4108 27.456 12.3119 27.456 12.2088V8.8639C27.456 8.76082 27.4992 8.66196 27.5762 8.58908C27.6532 8.51619 27.7576 8.47524 27.8665 8.47524H30.6856C30.7945 8.47524 30.8989 8.51619 30.9759 8.58908C31.0529 8.66196 31.0962 8.76082 31.0962 8.8639Z" fill="#00B1FF"/>
<path d="M30.6911 22.8156C30.6911 20.8856 29.0386 19.321 27.0001 19.321C24.9616 19.321 23.309 20.8856 23.309 22.8156" fill="#4D8226"/>
<path d="M6.8641 19.321C4.8256 19.321 3.1731 20.8856 3.1731 22.8156H10.5551C10.5551 20.8856 8.9026 19.321 6.8641 19.321Z" fill="#4D8226"/>
<path d="M9.78848 23.2653C9.78848 24.7756 8.4953 26 6.90004 26C5.30478 26 4.0116 24.7756 4.0116 23.2653C4.0116 21.755 5.30478 20.5306 6.90004 20.5306C8.4953 20.5306 9.78848 21.755 9.78848 23.2653Z" fill="#2B3B47"/>
<path d="M6.90004 26C8.4953 26 9.78848 24.7756 9.78848 23.2653C9.78848 21.755 8.4953 20.5306 6.90004 20.5306C5.30478 20.5306 4.0116 21.755 4.0116 23.2653C4.0116 24.7756 5.30478 26 6.90004 26Z" fill="#2B3B47"/>
<path d="M27.1116 20.5306C25.5164 20.5306 24.2232 21.755 24.2232 23.2653C24.2232 24.7756 25.5164 26 27.1116 26C28.7069 26 30.0001 24.7756 30.0001 23.2653C30.0001 21.755 28.7069 20.5306 27.1116 20.5306Z" fill="#2B3B47"/>
<path d="M9.78848 23.2653C9.78848 24.7756 8.4953 26 6.90004 26C5.30478 26 4.0116 24.7756 4.0116 23.2653C4.0116 21.755 5.30478 20.5306 6.90004 20.5306C8.4953 20.5306 9.78848 21.755 9.78848 23.2653Z" fill="#2B3B47"/>
<path d="M6.90004 26C8.4953 26 9.78848 24.7756 9.78848 23.2653C9.78848 21.755 8.4953 20.5306 6.90004 20.5306C5.30478 20.5306 4.0116 21.755 4.0116 23.2653C4.0116 24.7756 5.30478 26 6.90004 26Z" fill="#2B3B47"/>
<path d="M8.6688 23.2635C8.6688 24.2042 7.86333 24.9668 6.86971 24.9668C5.87609 24.9668 5.07062 24.2042 5.07062 23.2635C5.07062 22.3228 5.87609 21.5602 6.86971 21.5602C7.86333 21.5602 8.6688 22.3228 8.6688 23.2635Z" fill="#597B91"/>
<path d="M25.5 23.3259C25.5 22.3851 26.3055 21.6226 27.2991 21.6226C28.2927 21.6226 29.0982 22.3851 29.0982 23.3259C29.0982 24.2666 28.2927 25.0292 27.2991 25.0292C26.3055 25.0292 25.5 24.2666 25.5 23.3259Z" fill="#597B91"/>
</svg>
