<svg width="112" height="112" viewBox="0 0 112 112" fill="none" xmlns="http://www.w3.org/2000/svg">
<rect width="112" height="112" fill="white"/>
<path d="M107.46 101.358H3.54033C1.58507 101.358 0 100.061 0 98.4609V52.7162C0 48.4546 4.2212 45 9.42839 45H88.68C101.007 45 111 53.1784 111 63.2666V98.4607C111 100.061 109.415 101.358 107.46 101.358V101.358Z" fill="#E5E4DF"/>
<path d="M108.196 101.358H2.8044C1.25566 101.358 0 100.27 0 98.927V85.2559H111V98.927C111 100.27 109.745 101.358 108.196 101.358Z" fill="#6EB51C"/>
<path d="M0 81.2303H111V85.2559H0V81.2303Z" fill="#4D8226"/>
<path d="M108.423 83.2431H111V73.1791H108.423C106.899 73.1791 105.663 74.2202 105.663 75.5044V80.9177C105.663 82.202 106.899 83.2431 108.423 83.2431V83.2431Z" fill="#FF473E"/>
<path d="M3.29519 89.2815H0V97.4682H3.29519C4.71438 97.4682 5.86488 96.3833 5.86488 95.0451V91.7045C5.86488 90.3663 4.71438 89.2815 3.29519 89.2815V89.2815Z" fill="#FFD469"/>
<path d="M15.113 75.7271H0V53.0512H15.1128C17.7118 53.0512 19.8187 55.0379 19.8187 57.4886V71.2897C19.8189 73.7404 17.712 75.7271 15.113 75.7271ZM37.4744 65.7996V54.5941C37.4744 54.2488 37.3289 53.9176 37.0699 53.6734C36.811 53.4292 36.4597 53.2921 36.0935 53.2921H26.6109C26.2447 53.2921 25.8934 53.4292 25.6345 53.6734C25.3755 53.9176 25.23 54.2488 25.23 54.5941V65.7996C25.23 66.145 25.3755 66.4761 25.6345 66.7203C25.8934 66.9645 26.2447 67.1017 26.6109 67.1017H36.0935C36.4597 67.1017 36.811 66.9645 37.0699 66.7203C37.3289 66.4761 37.4744 66.145 37.4744 65.7996ZM54.7857 65.7996V54.5941C54.7857 54.2488 54.6403 53.9176 54.3813 53.6734C54.1223 53.4292 53.7711 53.2921 53.4049 53.2921H43.9223C43.556 53.2921 43.2048 53.4292 42.9459 53.6734C42.6869 53.9176 42.5414 54.2488 42.5414 54.5941V65.7996C42.5414 66.145 42.6869 66.4761 42.9459 66.7203C43.2048 66.9645 43.556 67.1017 43.9223 67.1017H53.4049C53.7711 67.1017 54.1223 66.9645 54.3813 66.7203C54.6403 66.4761 54.7857 66.145 54.7857 65.7996ZM70.3713 65.7996V54.5941C70.3713 54.2488 70.2258 53.9176 69.9668 53.6734C69.7079 53.4292 69.3567 53.2921 68.9904 53.2921H59.5078C59.1416 53.2921 58.7903 53.4292 58.5314 53.6734C58.2724 53.9176 58.127 54.2488 58.127 54.5941V65.7996C58.127 66.145 58.2724 66.4761 58.5314 66.7203C58.7903 66.9645 59.1416 67.1017 59.5078 67.1017H68.9904C69.3567 67.1017 69.7079 66.9645 69.9668 66.7203C70.2258 66.4761 70.3713 66.145 70.3713 65.7996ZM87.6828 65.7996V54.5941C87.6828 54.2488 87.5374 53.9176 87.2784 53.6734C87.0194 53.4292 86.6682 53.2921 86.302 53.2921H76.8193C76.4531 53.2921 76.1019 53.4292 75.843 53.6734C75.584 53.9176 75.4385 54.2488 75.4385 54.5941V65.7996C75.4385 66.145 75.584 66.4761 75.843 66.7203C76.1019 66.9645 76.4531 67.1017 76.8193 67.1017H86.302C86.6682 67.1017 87.0194 66.9645 87.2784 66.7203C87.5374 66.4761 87.6828 66.145 87.6828 65.7996Z" fill="#00B1FF"/>
<path d="M104.596 54.5941V65.7996C104.596 66.145 104.451 66.4761 104.192 66.7203C103.933 66.9645 103.582 67.1017 103.215 67.1017H93.7327C93.3664 67.1017 93.0152 66.9645 92.7563 66.7203C92.4973 66.4761 92.3518 66.145 92.3518 65.7996V54.5941C92.3518 54.2488 92.4973 53.9176 92.7563 53.6734C93.0152 53.4292 93.3664 53.2921 93.7327 53.2921H103.215C103.582 53.2921 103.933 53.4292 104.192 53.6734C104.451 53.9176 104.596 54.2488 104.596 54.5941Z" fill="#00B1FF"/>
<path d="M103.234 101.332C103.234 94.8669 97.6751 89.6255 90.8183 89.6255C83.9615 89.6255 78.4031 94.8667 78.4031 101.332" fill="#4D8226"/>
<path d="M23.0883 89.6255C16.2315 89.6255 10.6731 94.8669 10.6731 101.332H35.5035C35.5035 94.8667 29.9451 89.6255 23.0883 89.6255Z" fill="#4D8226"/>
<path d="M32.9248 102.839C32.9248 107.898 28.575 112 23.2091 112C17.8433 112 13.4935 107.898 13.4935 102.839C13.4935 97.7791 17.8433 93.6775 23.2091 93.6775C28.575 93.6775 32.9248 97.7793 32.9248 102.839Z" fill="#2B3B47"/>
<path d="M23.2091 112C28.575 112 32.9248 107.898 32.9248 102.839C32.9248 97.7793 28.575 93.6775 23.2091 93.6775C17.8433 93.6775 13.4935 97.7791 13.4935 102.839C13.4935 107.898 17.8433 112 23.2091 112Z" fill="#2B3B47"/>
<path d="M91.1935 93.6775C85.8276 93.6775 81.4778 97.7791 81.4778 102.839C81.4778 107.898 85.8276 112 91.1935 112C96.5594 112 100.909 107.898 100.909 102.839C100.909 97.7791 96.5594 93.6775 91.1935 93.6775Z" fill="#2B3B47"/>
<path d="M32.9248 102.839C32.9248 107.898 28.575 112 23.2091 112C17.8433 112 13.4935 107.898 13.4935 102.839C13.4935 97.7791 17.8433 93.6775 23.2091 93.6775C28.575 93.6775 32.9248 97.7793 32.9248 102.839Z" fill="#2B3B47"/>
<path d="M23.2091 112C28.575 112 32.9248 107.898 32.9248 102.839C32.9248 97.7793 28.575 93.6775 23.2091 93.6775C17.8433 93.6775 13.4935 97.7791 13.4935 102.839C13.4935 107.898 17.8433 112 23.2091 112Z" fill="#2B3B47"/>
<path d="M29.1587 102.833C29.1587 105.984 26.4494 108.539 23.1072 108.539C19.765 108.539 17.0557 105.984 17.0557 102.833C17.0557 99.6812 19.765 97.1266 23.1072 97.1266C26.4494 97.1266 29.1587 99.6814 29.1587 102.833Z" fill="#597B91"/>
<path d="M85.7728 103.042C85.7728 99.8902 88.4821 97.3355 91.8243 97.3355C95.1665 97.3355 97.8758 99.8902 97.8758 103.042C97.8758 106.193 95.1665 108.748 91.8243 108.748C88.4821 108.748 85.7728 106.193 85.7728 103.042Z" fill="#597B91"/>
</svg>
