<svg width="55" height="42" viewBox="0 0 55 42" fill="none" xmlns="http://www.w3.org/2000/svg">
<g clip-path="url(#clip0_226_2101)">
<rect width="55" height="42" fill="white"/>
<path d="M53.2459 35.6154H1.75422C0.785394 35.6154 0 34.9337 0 34.0928V10.0547C0 7.81535 2.09159 6 4.67173 6H43.9405C50.0485 6 55 10.2976 55 15.5988V34.0928C55.0001 34.9337 54.2147 35.6154 53.2459 35.6154Z" fill="#E5E4DF"/>
<path d="M53.6105 35.6154H1.38957C0.622175 35.6154 0 35.0434 0 34.3378V27.1538H55V34.3378C55.0001 35.0434 54.3779 35.6154 53.6105 35.6154Z" fill="#6EB51C"/>
<path d="M0 25.0385H55V27.1539H0V25.0385Z" fill="#4D8226"/>
<path d="M53.7231 26.0962H55V20.8077H53.7231C52.968 20.8077 52.3558 21.3548 52.3558 22.0296V24.8742C52.3558 25.5491 52.968 26.0962 53.7231 26.0962Z" fill="#FF473E"/>
<path d="M1.63275 29.2692H0V33.5712H1.63275C2.33595 33.5712 2.90602 33.0011 2.90602 32.2979V30.5425C2.90602 29.8393 2.33595 29.2692 1.63275 29.2692Z" fill="#FFD469"/>
<path d="M7.48841 22.1466H0V10.2308H7.48832C8.77613 10.2308 9.82009 11.2747 9.82009 12.5625V19.8148C9.82019 21.1026 8.77622 22.1466 7.48841 22.1466ZM18.5684 16.9299V11.0415C18.5684 10.8601 18.4963 10.6861 18.368 10.5577C18.2397 10.4294 18.0656 10.3574 17.8842 10.3574H13.1856C13.0041 10.3574 12.8301 10.4294 12.7018 10.5577C12.5735 10.6861 12.5014 10.8601 12.5014 11.0415V16.9299C12.5014 17.1114 12.5735 17.2854 12.7018 17.4137C12.8301 17.542 13.0041 17.6141 13.1856 17.6141H17.8842C18.0656 17.6141 18.2397 17.542 18.368 17.4137C18.4963 17.2854 18.5684 17.1114 18.5684 16.9299ZM27.1461 16.9299V11.0415C27.1461 10.8601 27.074 10.6861 26.9457 10.5577C26.8174 10.4294 26.6434 10.3574 26.4619 10.3574H21.7633C21.5818 10.3574 21.4078 10.4294 21.2795 10.5577C21.1512 10.6861 21.0791 10.8601 21.0791 11.0415V16.9299C21.0791 17.1114 21.1512 17.2854 21.2795 17.4137C21.4078 17.542 21.5818 17.6141 21.7633 17.6141H26.4619C26.6434 17.6141 26.8174 17.542 26.9457 17.4137C27.074 17.2854 27.1461 17.1114 27.1461 16.9299ZM34.8686 16.9299V11.0415C34.8686 10.8601 34.7966 10.6861 34.6683 10.5577C34.5399 10.4294 34.3659 10.3574 34.1845 10.3574H29.4858C29.3044 10.3574 29.1304 10.4294 29.002 10.5577C28.8737 10.6861 28.8016 10.8601 28.8016 11.0415V16.9299C28.8016 17.1114 28.8737 17.2854 29.002 17.4137C29.1304 17.542 29.3044 17.6141 29.4858 17.6141H34.1845C34.3659 17.6141 34.5399 17.542 34.6683 17.4137C34.7966 17.2854 34.8686 17.1114 34.8686 16.9299ZM43.4464 16.9299V11.0415C43.4464 10.8601 43.3744 10.6861 43.2461 10.5577C43.1177 10.4294 42.9437 10.3574 42.7623 10.3574H38.0636C37.8822 10.3574 37.7082 10.4294 37.5798 10.5577C37.4515 10.6861 37.3795 10.8601 37.3795 11.0415V16.9299C37.3795 17.1114 37.4515 17.2854 37.5798 17.4137C37.7082 17.542 37.8822 17.6141 38.0636 17.6141H42.7623C42.9437 17.6141 43.1177 17.542 43.2461 17.4137C43.3744 17.2854 43.4464 17.1114 43.4464 16.9299Z" fill="#00B1FF"/>
<path d="M51.8269 11.0415V16.9299C51.8269 17.1114 51.7548 17.2854 51.6265 17.4137C51.4982 17.542 51.3242 17.6141 51.1427 17.6141H46.4441C46.2627 17.6141 46.0886 17.542 45.9603 17.4137C45.832 17.2854 45.7599 17.1114 45.7599 16.9299V11.0415C45.7599 10.8601 45.832 10.6861 45.9603 10.5577C46.0886 10.4294 46.2627 10.3573 46.4441 10.3573H51.1427C51.3242 10.3573 51.4982 10.4294 51.6265 10.5577C51.7548 10.6861 51.8269 10.8601 51.8269 11.0415Z" fill="#00B1FF"/>
<path d="M51.1517 35.6017C51.1517 32.2043 48.3976 29.45 45.0001 29.45C41.6026 29.45 38.8484 32.2042 38.8484 35.6017" fill="#4D8226"/>
<path d="M11.4401 29.45C8.04262 29.45 5.28845 32.2043 5.28845 35.6017H17.5918C17.5918 32.2042 14.8376 29.45 11.4401 29.45Z" fill="#4D8226"/>
<path d="M16.3141 36.3934C16.3141 39.0521 14.1588 41.2075 11.5 41.2075C8.84128 41.2075 6.68597 39.0521 6.68597 36.3934C6.68597 33.7346 8.84128 31.5793 11.5 31.5793C14.1588 31.5793 16.3141 33.7347 16.3141 36.3934Z" fill="#2B3B47"/>
<path d="M11.5 41.2075C14.1588 41.2075 16.3141 39.0521 16.3141 36.3934C16.3141 33.7347 14.1588 31.5793 11.5 31.5793C8.84128 31.5793 6.68597 33.7346 6.68597 36.3934C6.68597 39.0521 8.84128 41.2075 11.5 41.2075Z" fill="#2B3B47"/>
<path d="M45.186 31.5793C42.5272 31.5793 40.3719 33.7346 40.3719 36.3934C40.3719 39.0521 42.5272 41.2074 45.186 41.2074C47.8448 41.2074 50.0001 39.0521 50.0001 36.3934C50.0001 33.7346 47.8448 31.5793 45.186 31.5793Z" fill="#2B3B47"/>
<path d="M16.3141 36.3934C16.3141 39.0521 14.1588 41.2075 11.5 41.2075C8.84128 41.2075 6.68597 39.0521 6.68597 36.3934C6.68597 33.7346 8.84128 31.5793 11.5 31.5793C14.1588 31.5793 16.3141 33.7347 16.3141 36.3934Z" fill="#2B3B47"/>
<path d="M11.5 41.2075C14.1588 41.2075 16.3141 39.0521 16.3141 36.3934C16.3141 33.7347 14.1588 31.5793 11.5 31.5793C8.84128 31.5793 6.68597 33.7346 6.68597 36.3934C6.68597 39.0521 8.84128 41.2075 11.5 41.2075Z" fill="#2B3B47"/>
<path d="M14.448 36.3902C14.448 38.0462 13.1056 39.3887 11.4495 39.3887C9.7935 39.3887 8.45105 38.0462 8.45105 36.3902C8.45105 34.7341 9.7935 33.3917 11.4495 33.3917C13.1056 33.3917 14.448 34.7342 14.448 36.3902Z" fill="#597B91"/>
<path d="M42.5001 36.5C42.5001 34.844 43.8425 33.5015 45.4986 33.5015C47.1546 33.5015 48.497 34.844 48.497 36.5C48.497 38.156 47.1546 39.4985 45.4986 39.4985C43.8425 39.4985 42.5001 38.156 42.5001 36.5Z" fill="#597B91"/>
</g>
<defs>
<clipPath id="clip0_226_2101">
<rect width="55" height="42" fill="white"/>
</clipPath>
</defs>
</svg>
