<svg width="60" height="60" viewBox="0 0 60 60" fill="none" xmlns="http://www.w3.org/2000/svg">
<path d="M32.21 6.33C31.345 4.695 28.655 4.695 27.79 6.33L5.29 48.83C5.08746 49.2109 4.98705 49.6378 4.99855 50.0691C5.01005 50.5004 5.13308 50.9213 5.35563 51.2909C5.57819 51.6605 5.89269 51.9661 6.26849 52.178C6.64429 52.3899 7.06858 52.5008 7.5 52.5H52.5C52.9311 52.5009 53.3551 52.3901 53.7307 52.1783C54.1062 51.9665 54.4205 51.6611 54.6428 51.2917C54.8651 50.9223 54.988 50.5016 54.9993 50.0706C55.0106 49.6396 54.9101 49.2131 54.7075 48.8325L32.21 6.33ZM32.5 45H27.5V40H32.5V45ZM27.5 35V22.5H32.5L32.5025 35H27.5Z" fill="#DC3545"/>
</svg>
